<svg xmlns="http://www.w3.org/2000/svg" xmlns:xlink="http://www.w3.org/1999/xlink" width="543.939" height="380.698" viewBox="0 0 543.939 380.698">
  <defs>
    <filter id="Union_5" x="0" y="0" width="543.939" height="380.698" filterUnits="userSpaceOnUse">
      <feOffset dx="2" dy="3" input="SourceAlpha"/>
      <feGaussianBlur stdDeviation="3" result="blur"/>
      <feFlood flood-opacity="0.161"/>
      <feComposite operator="in" in2="blur"/>
      <feComposite in="SourceGraphic"/>
    </filter>
  </defs>
  <g id="Group_1187" data-name="Group 1187" transform="translate(-758.166 -151.896)">
    <path id="Path_1304" data-name="Path 1304" d="M1197.5,364.8c-28.581,95.82-120.868,173.081-223.846,161.352-73.556-8.379-136.351-75.9-145.253-148.038a146.7,146.7,0,0,1-1.11-19.156,134.787,134.787,0,0,1,6.79-41.065c29.311-88.907,137.834-120.618,221.1-95.781,98.53,29.389,167.552,58.092,142.319,142.689" transform="translate(30.718 -6.38)" fill="#ffc729"/>
    <g transform="matrix(1, 0, 0, 1, 758.17, 151.9)" filter="url(#Union_5)">
      <path id="Union_5-2" data-name="Union 5" d="M328.485,342.415a91.947,91.947,0,0,1-35.5-24.784c-16.667-19.065-24.992-41.158-23.324-66.6a53.474,53.474,0,0,1,14.229-33.545c8.918-9.685,19.592-16.486,32.486-19.581.674-.161,1.329-.431,2.01-.527,4.374-.619,8.35-1.724,9.049-7.056,3.532-6.147,7.76-11.554,14.866-13.844a2.846,2.846,0,0,0,1.843-1.834c4.772-10.942,13.822-15.392,25.092-16.114a43.63,43.63,0,0,1,21.861,4.181c4.265,2.018,8.746,3.582,12.8,6.074a50.526,50.526,0,0,1,15.693,14.98,34.161,34.161,0,0,1,5.8,14.342,5.55,5.55,0,0,0,2.6,4.112,55.945,55.945,0,0,1,18.119,21.56,92.284,92.284,0,0,1,7.495,21.541q6.528-.088,13.054-.43a4.646,4.646,0,0,1,2.87-1.086c1.041-.064,2.083-.071,3.123-.073,1.061-.013,2.122-.027,3.182-.025a21.215,21.215,0,0,0,3.147.013c3.025-.135,6.051-.271,8.055,3.182q.271,2.615.458,5.233c.026-.171.05-.339.078-.5a43.941,43.941,0,0,1,5.114-13.872c2.076-3.76,4.444-7.285,6.821-11.134a42.5,42.5,0,0,1-8.963-19.219,53.511,53.511,0,0,1,.069-21.287,63.777,63.777,0,0,1-6.643-2.792,31.133,31.133,0,0,1-10.212-9.895,76.336,76.336,0,0,1-11.5-27.412c-.928-4.217-1.582-8.483-2.439-13.16-1.108.36-2.213.691-3.3,1.077a42.238,42.238,0,0,1-13.485,2.269,26.857,26.857,0,0,1-16.549-5.48,53.2,53.2,0,0,1-16.307-18.866c-.5-.976-1.032-1.936-1.656-3.1-.7.6-1.327,1.135-1.947,1.68-7.777,6.832-16.643,10.945-26.936,11.192-7,.167-13.833-1.879-20.43-5.495a29.373,29.373,0,0,1-5.412-3.818q-.046,1.49-.137,2.992a70.039,70.039,0,0,1-10.889,32.949c-4.653,7.526-9.9,14.577-16.844,20.163-14.726,11.853-31.324,19.481-50.156,22a136.9,136.9,0,0,1-14.585,1.094c-9.7-.148-19.067-.947-28.089-3.635-9.073-2.7-17.914-6.031-25.947-11.338-17.977-11.877-30.985-27.622-38.018-48.075-4.944-14.377-5.643-28.867.458-43.095a63.083,63.083,0,0,1,21.656-27.213c-6.779-8.866-18.1-10.6-27.256-2.412.755,1.079,1.526,2.129,2.25,3.227,2.5,3.79,4.333,7.976,4.143,13.011a20.328,20.328,0,0,1-1.186,6.1c-1.77,4.785-5.4,7.024-9.156,5.993-4.4-1.21-7.073-5.227-7.116-10.7a27.25,27.25,0,0,1,4.148-14.738c.575-.941,1.21-1.825,1.981-2.98a20.3,20.3,0,0,0-2.132-1.726c-9.435-5.673-19.22-8.074-29.586-4.658a25.362,25.362,0,0,0-17.708,19.564c.656.561,1.32,1.177,2.021,1.723a23.676,23.676,0,0,1,7.031,9.1,13.188,13.188,0,0,1,1.148,7.276c-.722,5.518-4.969,7.774-8.687,4.589a12.721,12.721,0,0,1-4.113-7.382,74,74,0,0,1-.84-8.633c-.1-1.422-.018-2.866-.018-4.265-13.5-7.524-47.49,5.108-55.479,25.817,1.22.894,2.5,1.74,3.71,2.737,6.1,5.05,6.96,14.315,1.978,20.96-3.2,4.267-7.017,4-9.734-.75a18.657,18.657,0,0,1-1.929-12.161c.388-2.723,1.072-5.38,1.67-8.293a8.848,8.848,0,0,0-2.04-.8c-11.133-1.416-21.233,2.012-30.29,10.111-6.5,5.814-9.524,14.158-10.717,23.629C.167,157.64,5.988,179.687,18.667,199.248a82.467,82.467,0,0,0,13.7,16.138,36.48,36.48,0,0,0,3.235,2.656,100.2,100.2,0,0,1,6.977-20.157A61.953,61.953,0,0,1,57.6,178.1a11.759,11.759,0,0,1,3.591-2.683c3.157-1.076,3.8-3.474,4.25-6.311a39.288,39.288,0,0,1,2.982-9.585c1.073-2.452,1.031-2.393-.856-4.1a19.976,19.976,0,0,1-6.949-17.358c.627-6.809,6.3-11.976,13.709-13.832,7.241-1.814,18.694,2.958,22.013,12.248a48,48,0,0,1,19.28-4.746,45.376,45.376,0,0,1,12.028,1.3,24.6,24.6,0,0,1,16.234,12.561,10.949,10.949,0,0,1,1.491,3.849,5.1,5.1,0,0,0,4.129,4.572c6.839,1.77,11.242,6.173,13.4,12.794.61,1.874,1.806,2.383,3.472,2.742,8.97,1.931,17.667,4.589,25.428,9.722,14.027,9.276,23.7,21.629,26.843,38.453,2.36,12.649,1.167,25.148-2.5,37.413a91.967,91.967,0,0,1-30.219,45.642,100.545,100.545,0,0,1-45.158,20.945,111.027,111.027,0,0,1-21.284,2.185,86.858,86.858,0,0,1-15.959-1.441c-16.408-3.059-31.362-9.061-44.048-20.434C48.952,292.6,41.481,281.594,37.3,268.817c-2.956.01-5.913,0-8.869,0q-3.513-.008-7.025-.006c-.644,0-1.29,0-1.932-.029-7.486-.362-8.106-.961-8.148-8.573-.066-12.233-.245-24.471,1.018-36.667,2-3.453,5.03-3.318,8.054-3.182a21.225,21.225,0,0,0,3.148-.013c1.06,0,2.121.012,3.182.025,1.041,0,2.082.009,3.123.073a4.647,4.647,0,0,1,2.87,1.086q1.065.057,2.129.106.055-.29.112-.58A28.266,28.266,0,0,1,32.1,218.9a83.768,83.768,0,0,1-16.874-20.012A100.328,100.328,0,0,1,.188,139.144a94.216,94.216,0,0,1,2.132-14.429,33.735,33.735,0,0,1,11.792-19.687c9.7-7.82,20.242-11.186,31.8-9.012a19.649,19.649,0,0,0,2.01.165C53.9,83.4,63.29,76.194,74.139,71.345c10.655-4.764,21.461-7.321,32.648-3.523a6.153,6.153,0,0,0,.68-1.145c3.355-11.635,10.553-17.68,19.791-20.505,11.14-3.408,21.691-.833,31.677,5.687,1.819,1.188,3.078,1.343,4.955.11a23.393,23.393,0,0,1,17.4-3.894,18.219,18.219,0,0,1,12.312,8.5q.928-.6,1.885-1.168c2.682-1.6,5.362-3.233,8.179-4.562a3.715,3.715,0,0,0,2.452-3.719c.012-3.315,1.2-6.346,2.364-9.372a22.759,22.759,0,0,1,8.082-10.623,3.713,3.713,0,0,0,1.986-2.615c1.625-11.35,8.717-18.073,19.023-21.762a44.175,44.175,0,0,1,23.2-2.042c5.453.982,10.993,1.459,16.255,3.332C286.757,7.5,295.016,13,300.784,21.766c1.387,2.108,2,4.9,3.749,6.545,1.654,1.551,4.44,1.719,6.617,2.825C322.407,36.854,331,45.4,337.688,55.988a106.062,106.062,0,0,1,12.678,28.054c1.8.26,3.485,1.86,4.209,4.42a13.067,13.067,0,0,1-1.319,10.4,94.306,94.306,0,0,1,.583,10.438,24.78,24.78,0,0,0,4.72,3.66c8.676,5.2,17.605,7.353,26.738,5.517a41.85,41.85,0,0,0,20.231-10.459c1.522-1.389,2.07-2.668,1.232-5.166a25.458,25.458,0,0,1-1.01-12.344c.566-3.384,2.137-5.765,5.219-6.454,3.145-.7,5.913,1.458,6.216,5.238a15.263,15.263,0,0,1-.674,6.3,65.934,65.934,0,0,1-4.245,8.319,30.54,30.54,0,0,1-2.084,2.909c1.058,2.129,2,4.369,3.218,6.411a50.617,50.617,0,0,0,14.513,15.683A24.526,24.526,0,0,0,442,133.675a39.8,39.8,0,0,0,17.628-3.69,33.918,33.918,0,0,1,.063-3.8,31.663,31.663,0,0,1,1.068-5.9c.662-2,2.358-2.665,3.852-2a4.545,4.545,0,0,1,2.453,4.589,21.263,21.263,0,0,1-1.454,4.7,2.822,2.822,0,0,1-1.022,1.422c-2.691,1.59-2.461,4.36-1.98,7.466,1.805,11.62,4.848,22.791,11.056,32.9,2.679,4.362,5.764,8.292,9.834,10.906a30.149,30.149,0,0,0,5.691,2.624c1.491.569,2.607.105,3.611-1.353a12.323,12.323,0,0,1,3.673-2.989,2.18,2.18,0,0,1,1.9-.115,3.8,3.8,0,0,1,1.99,1.718,2.987,2.987,0,0,1-.487,2.567,9.735,9.735,0,0,1-4.1,2.258c-2.176.409-3.086,1.731-3.422,4.08-1.567,11.009-.51,21.7,5.664,31.756.957,1.561,2.178,2.925,3.306,4.418,1.254-.742,2.249-1.441,3.328-1.945a7,7,0,0,1,7.14.389,4.069,4.069,0,0,1,.894,6.5,4.491,4.491,0,0,1-4.485,1.056c-2.144-.534-4.251-1.432-6.727-2.3-.522.614-1.322,1.431-2,2.37-4.475,6.194-8.156,12.956-9.727,21.162a6.356,6.356,0,0,1-1.986,4.011c.455,9.026.345,18.069.3,27.109-.042,7.613-.661,8.212-8.147,8.573-.643.031-1.289.03-1.933.029q-3.513-.005-7.026.006c-5.983.012-11.967.024-17.947-.1a72.736,72.736,0,0,1-6.946,16.681A77.465,77.465,0,0,1,409.7,341.884a99.615,99.615,0,0,1-40.616,8.817A108.174,108.174,0,0,1,328.485,342.415ZM506.718,225.153a7.618,7.618,0,0,0-2.667,1.714c3.373,2.609,6.066,2.667,7.7-.035a6.085,6.085,0,0,0-3.869-1.87A3.725,3.725,0,0,0,506.718,225.153Zm-44.373-97.585c2.714-2.851,3.055-4.269,1.508-7.047C461.921,122.608,461.524,124.626,462.345,127.568Zm-415.3-15.932a20.076,20.076,0,0,0,1.962,6.962c1.4,2.779,3.144,2.773,5.095.612a11.71,11.71,0,0,0-.409-16.191,38.3,38.3,0,0,0-4.351-3.106C47.753,104.085,46.685,107.757,47.043,111.636ZM412.01,86.494a4.6,4.6,0,0,0-.986.2,4.335,4.335,0,0,0-2.8,3.3c-1.147,4.389-.533,8.837,1.059,13.818,2.552-3.294,4.583-6.4,5.5-10.346a13.484,13.484,0,0,0,.273-4.148,2.759,2.759,0,0,0-2.741-2.834C412.217,86.48,412.115,86.485,412.01,86.494Zm-302.877-4.34a24.66,24.66,0,0,0,2.549,5.864c.91,1.544,2.334,2.411,3.975,1.591,1.369-.686,2.268-3.256,1.744-5.49-1.261-5.366-4.193-8.947-8.471-11.909C108.531,75.988,108.3,79.144,109.134,82.154ZM155.253,73.4a7.526,7.526,0,0,0,5.108,7.626c2.85.808,5.352-.827,6.749-4.45a13.851,13.851,0,0,0,.42-8.513,21.034,21.034,0,0,0-6.129-10.5C157.278,61.867,155.509,67.249,155.253,73.4Z" transform="translate(13 12)" fill="#fff" stroke="#fff" stroke-miterlimit="10" stroke-width="12"/>
    </g>
    <g id="Group_1181" data-name="Group 1181" transform="translate(771.167 163.893)">
      <g id="Group_1140" data-name="Group 1140" transform="translate(11.28)">
        <g id="Group_1139" data-name="Group 1139" transform="translate(21.844)">
          <g id="Group_1022" data-name="Group 1022" transform="translate(0)">
            <path id="Path_1494" data-name="Path 1494" d="M-709.2-286.521a48,48,0,0,1,19.28-4.747,45.368,45.368,0,0,1,12.028,1.3,24.6,24.6,0,0,1,16.234,12.562,10.952,10.952,0,0,1,1.491,3.849,5.1,5.1,0,0,0,4.13,4.572c6.838,1.769,11.242,6.173,13.4,12.794.61,1.874,1.807,2.383,3.473,2.742,8.971,1.932,17.666,4.589,25.429,9.722,14.027,9.276,23.7,21.629,26.843,38.453,2.36,12.649,1.166,25.148-2.5,37.414a91.968,91.968,0,0,1-30.219,45.641,100.536,100.536,0,0,1-45.158,20.945c-12.351,2.411-24.787,3.065-37.243.744-16.408-3.058-31.362-9.061-44.048-20.434-13.855-12.419-22.418-27.57-25.146-45.891a99.908,99.908,0,0,1,8.252-58.259A61.942,61.942,0,0,1-747.945-244.9a11.757,11.757,0,0,1,3.591-2.683c3.157-1.076,3.8-3.475,4.251-6.312a39.27,39.27,0,0,1,2.983-9.585c1.073-2.452,1.03-2.394-.857-4.1a19.975,19.975,0,0,1-6.949-17.358c.626-6.808,6.3-11.975,13.708-13.832C-723.977-300.582-712.523-295.81-709.2-286.521Z" transform="translate(772.42 422.999)"/>
            <path id="Path_1495" data-name="Path 1495" d="M-469.182-301.962c-9.7-.148-19.067-.948-28.089-3.635-9.073-2.7-17.914-6.031-25.947-11.338-17.977-11.877-30.984-27.622-38.018-48.075-4.944-14.377-5.643-28.867.458-43.094a62.789,62.789,0,0,1,25.9-29.975c2.681-1.6,5.362-3.233,8.178-4.562a3.715,3.715,0,0,0,2.452-3.719c.012-3.315,1.2-6.346,2.364-9.371a22.758,22.758,0,0,1,8.082-10.624,3.714,3.714,0,0,0,1.986-2.615c1.625-11.35,8.717-18.072,19.023-21.762a44.178,44.178,0,0,1,23.2-2.043c5.454.983,10.993,1.459,16.255,3.332,9.733,3.462,17.992,8.958,23.76,17.723,1.387,2.108,2,4.9,3.749,6.545,1.654,1.551,4.44,1.719,6.617,2.824,11.257,5.718,19.855,14.267,26.538,24.853,11.439,18.121,17.282,37.764,15.969,59.328A70.043,70.043,0,0,1-387.6-345.221c-4.654,7.526-9.9,14.577-16.844,20.163-14.725,11.853-31.324,19.481-50.156,22A136.743,136.743,0,0,1-469.182-301.962Z" transform="translate(697.241 493.486)"/>
            <path id="Path_1496" data-name="Path 1496" d="M-215.081-134.107a78.082,78.082,0,0,1-9.905,39.56,77.463,77.463,0,0,1-36.352,33.119c-26.885,11.88-54.1,11.456-81.217.531a91.943,91.943,0,0,1-35.5-24.784c-16.667-19.065-24.993-41.158-23.324-66.6a53.471,53.471,0,0,1,14.229-33.545c8.918-9.684,19.592-16.487,32.486-19.581.674-.161,1.329-.431,2.011-.527,4.374-.619,8.35-1.723,9.048-7.056,3.533-6.147,7.76-11.553,14.866-13.844a2.846,2.846,0,0,0,1.843-1.833c4.772-10.942,13.822-15.393,25.092-16.114a43.634,43.634,0,0,1,21.86,4.181c4.265,2.018,8.746,3.582,12.8,6.074a50.523,50.523,0,0,1,15.693,14.98,34.157,34.157,0,0,1,5.8,14.342,5.548,5.548,0,0,0,2.6,4.111,55.946,55.946,0,0,1,18.119,21.56C-218.17-165.8-215.046-151.211-215.081-134.107Z" transform="translate(637.917 403.313)"/>
            <path id="Path_1497" data-name="Path 1497" d="M-610.458-42.8c.071-6.238.478-11.789,0-17.322-.43-4.955-.971-9.9-1.485-14.848a2.7,2.7,0,0,0-.416-1.287c-.546-.736-1.165-.61-1.625.127-.549.881-.136,1.821-.027,2.712a155.411,155.411,0,0,1,1.127,29.443c-.113,1.675-.458,2.649-2.113,3.432A105.216,105.216,0,0,1-675.426-31c-2.257-.308-3.3-1.35-4.078-3.439-3.3-8.9-6.1-17.946-8.609-27.089-.318-1.155-.268-3.1-1.929-2.689-1.962.487-.527,2.071-.244,3.153A235.869,235.869,0,0,0-682.1-34.579a2.81,2.81,0,0,1,.286,2.1,90.289,90.289,0,0,1-11.574-3.254,2.788,2.788,0,0,1-1.74-1.974c-2.455-6.484-5.116-12.888-7.219-19.508-4.077-12.827.825-23.032,10.749-29.428a52.229,52.229,0,0,1,7-3.8,80.305,80.305,0,0,1,11.568-4.278c-.08,2.275-1.351,4.526.113,6.688,1.533,2.263,3.814,1.571,5.9,1.392.76,8.124,3.512,9.754,9.522,5.6.781.643.927,1.721,1.44,2.542a12.149,12.149,0,0,0,4.135,4.135,5.671,5.671,0,0,0,7.737-1.481c.783-.986,1.391-2.112,2.2-3.36,3.055,1.571,6.194,3.513,9.658,1.405,3.214-1.956,4.19-5.051,3.635-8.689.816-.933,1.96-.507,2.921-.754,4.54-1.166,5.559-5.225,2.937-7.82-1.089-1.078-.951-1.88-.018-2.856a2.43,2.43,0,0,0,.474-.915c.954-2.891.952-2.957,3.894-2.83a50.974,50.974,0,0,1,6.555.611c7.445,1.3,12.675,6.882,14.025,14.85a49.773,49.773,0,0,1-.379,17.949c-1.194,6.128-2.592,12.214-3.821,18.336a4.889,4.889,0,0,1-2.663,3.765C-606.494-45.265-608.123-44.185-610.458-42.8Z" transform="translate(747.526 351.381)" fill="#fff"/>
            <path id="Path_1498" data-name="Path 1498" d="M-564.551-94.886c.918-4.227,1.792-8.277,2.68-12.324a68.6,68.6,0,0,0,1.691-21.024,26.641,26.641,0,0,0-1.977-8.045c-3.418-8.076-9.777-11.763-18.242-12.023a168.413,168.413,0,0,0-21.783.524c-.8.08-1.619.07-2.425.141a1.6,1.6,0,0,1-1.915-1.513c-.257-1.481-.519-2.962-.774-4.444-.454-2.642-.1-4.469,2.591-6.3,8.388-5.716,14.941-13.094,17.682-23.226.412-1.524,1.67-2.124,2.737-2.97,4.777-3.789,6.119-8.44,4.141-14.182-.306-.891-.527-2-1.366-2.327-2.013-.793-2.041-2.352-1.648-3.931.722-2.905,1.925-5.689,2.063-8.74a69.193,69.193,0,0,0-.246-8.889c9.551,1.86,18.416,4.546,26.337,9.81,13.723,9.119,22.946,21.323,25.794,37.861,2.046,11.877.809,23.567-2.612,35-5.5,18.367-15.951,33.5-30.685,45.7-.356.294-.738.559-1.121.818A4.092,4.092,0,0,1-564.551-94.886Z" transform="translate(712.589 395.799)" fill="#fff"/>
            <path id="Path_1499" data-name="Path 1499" d="M-740.091-216.81c-.156,5.269-.8,9.97-.244,14.737a32.2,32.2,0,0,0,10.257,20.658c.255.236.475.584.777.683,2.931.957,3.6,3.551,4.441,6.036a38.631,38.631,0,0,0,6.4,11.826c5.824,7.3,13.589,10.8,22.556,12.345,4.14.711,8.2,1.415,12.27-.146,1.122-.43,1.464.271,1.624,1.136.253,1.364.452,2.739.653,4.112.408,2.786.243,3.137-2.6,3.783-3.49.793-7.043,1.311-10.523,2.142a75.731,75.731,0,0,0-18.734,7.116,45.1,45.1,0,0,0-5.532,3.567c-9.351,7.045-12.891,17.2-9.991,28.568,1.547,6.066,4.063,11.8,6.238,17.643a7.4,7.4,0,0,1,.9,2.943c-1.172.315-2.044-.408-2.891-.848-25.128-13.07-40.587-32.976-43.532-61.742a96.9,96.9,0,0,1,9.06-52.645,60.674,60.674,0,0,1,13.952-18.429A22.286,22.286,0,0,1-740.091-216.81Z" transform="translate(771.025 393.134)" fill="#fff"/>
            <path id="Path_1500" data-name="Path 1500" d="M-674.836-228.964c2.1,1.306,3.914,2.51,5.8,3.6,15.064,8.7,30.8,15.825,47.69,20.209,1.094.284,1.783.408,1.89,1.866.175,2.383,1.374,2.7,3.537.914a11.436,11.436,0,0,1,.508,8.7c-.742,2.233-2.761,2.643-4.429,3.439-.937.447-1.442-.835-1.922-1.582-.369-.574-.851-.809-1.431-.426a1.3,1.3,0,0,0-.475,1.535,1.165,1.165,0,0,0,.306.612c2.539,1.839,1.171,3.9.44,6.006-3.183,9.147-8.888,16.148-17.515,20.623a4.111,4.111,0,0,0-2.469,4.411c.148,3.254.7,6.435,1.132,9.643.232,1.733,1.108,2.355,2.795,2.244,2.19-.145,4.391-.133,6.583-.25,1.352-.072,2.041.235,2.21,1.833.985,9.278-7.079,17.945-16.436,17.512a9.983,9.983,0,0,1-2.04-.345c-5.791-1.513-12.315-8.343-13.8-14.511a57.929,57.929,0,0,0,8.015-2.048c1.138-.335,1.558-.9,1.368-1.974-.523-2.958-.979-5.934-1.662-8.855-.468-2-1.3-2.654-2.933-1.867-3.589,1.734-7.186.951-10.792.588-12.941-1.3-22.211-7.809-27.564-19.738-.708-1.578-1.217-3.245-1.814-4.873a11.792,11.792,0,0,1-.548-6.1,35.877,35.877,0,0,0-.2-11.757,3.984,3.984,0,0,1,.969-3.782,24.971,24.971,0,0,1,2.118-2.262C-687.48-212.292-679.949-219.424-674.836-228.964Z" transform="translate(745.683 397.542)" fill="#fff"/>
            <path id="Path_1501" data-name="Path 1501" d="M-603.962-73.393a22.269,22.269,0,0,0,7.7-6.2c1.855,2.84,1.733,5.249-.24,7.087C-598.3-70.829-600.506-71.035-603.962-73.393Z" transform="translate(711.319 343.363)" fill="#f7f7f7"/>
            <path id="Path_1502" data-name="Path 1502" d="M-646.322-88.014c-1.226.86-2.3,1.7-3.457,2.39a2.046,2.046,0,0,1-2.281.041,2.194,2.194,0,0,1-.853-2.429,7.565,7.565,0,0,1,1.581-3.386c1.424-1.664,2.8-1.434,3.734.587C-647.216-89.985-646.842-89.154-646.322-88.014Z" transform="translate(729.101 348.047)" fill="#f3f3f3"/>
            <path id="Path_1503" data-name="Path 1503" d="M-587.254-92.144c1.385.49,2.858.787,3.856,2.042,1.2,1.513.994,2.629-.716,3.568-1.826,1-3.722.482-5.807.517l1.472-4.789C-587.919-91.135-588.56-92.511-587.254-92.144Z" transform="translate(706.226 347.939)" fill="#f5f5f5"/>
            <path id="Path_1504" data-name="Path 1504" d="M-641.234-82.535c1.451,1.6,2.605,2.846,3.731,4.119.486.549,1.49.953.85,1.942a3.883,3.883,0,0,1-3.3,2.116c-1.047-.02-1.519-.881-1.781-1.819C-642.313-78.241-641.927-80.233-641.234-82.535Z" transform="translate(725.122 344.431)" fill="#efefef"/>
            <path id="Path_1505" data-name="Path 1505" d="M-624.445-68.4c2.4,1.016,4.942.9,7.514.774-1.368,3.969-3.759,4.752-6.675,2.272a6.273,6.273,0,0,1-2.253-3A1.053,1.053,0,0,1-624.445-68.4Z" transform="translate(719.261 339.394)" fill="#f0f0f0"/>
            <path id="Path_1506" data-name="Path 1506" d="M-586.416-95.506l-1.195,1.338v-6.791c1.106-.6,2.169-.37,3.183-.484.855-.1,1.62-.019,1.836,1.048a1.7,1.7,0,0,1-.953,2.006c-.708.364-1.5.565-2.232.883C-586.73-97.1-586.758-96.351-586.416-95.506Z" transform="translate(705.388 351.301)" fill="#e5e5e5"/>
            <path id="Path_1507" data-name="Path 1507" d="M-624.622-68.643l-1.414.047c-.275-.094-.415-.346-.221-.493C-625.556-69.62-625.073-69.147-624.622-68.643Z" transform="translate(719.438 339.639)" fill="#8c8c8c"/>
            <path id="Path_1508" data-name="Path 1508" d="M-610.567-254.209c-.08.031-.171.1-.238.087-.258-.069-.285-.212-.068-.348a.3.3,0,0,1,.254.049C-610.574-254.389-610.582-254.282-610.567-254.209Z" transform="translate(713.879 406.798)" fill="#151515"/>
            <path id="Path_1509" data-name="Path 1509" d="M-406.6-410.275a38.112,38.112,0,0,1,3.813-.975c3.155-.473,5.4,1.528,5.434,4.713a8.219,8.219,0,0,1-1.67,4.837,26.138,26.138,0,0,1-7.057,6.6c-.9.614-2.179.878-2.545,2.171,2.506.978,2.375.94,1.681,3.373-1.939,6.8-6.366,11.425-12.5,14.557-14.489,7.4-29.416,8.363-44.571,2.434-6.895-2.7-11.636-8.2-15.944-14.023a1.191,1.191,0,0,1,.055-1.556,4.145,4.145,0,0,0,.846-2.242c.017-.59-.066-1.2-.695-1.438a1.017,1.017,0,0,0-1.368.686c-.335.8-.289,2.212-1.468,1.988-1.614-.307-3.5-.015-4.731-1.633a9.808,9.808,0,0,1-2.229-7.5c1,.062,1.716,1.065,2.831.689,1.312-.442,2.424-.941,2.117-2.608-.418-2.27.315-4.317,1.009-6.425a131.652,131.652,0,0,0,3.433-14.154,5.74,5.74,0,0,1,3.31-4.4,12.551,12.551,0,0,0,6.648-9.251c.25-1.322.66-1.652,2.018-1.545,16.317,1.294,32.3-.853,48.058-4.957,2.277-.593,3.6-.331,5.3,1.556a11.652,11.652,0,0,1,3.162,7.3A79.765,79.765,0,0,0-406.6-410.275Z" transform="translate(669.85 474.528)" fill="#fff"/>
            <path id="Path_1510" data-name="Path 1510" d="M-341.99-309.717a244.112,244.112,0,0,0,2.294-26.592,46.882,46.882,0,0,0-.625-9.335,12.48,12.48,0,0,0-6.616-9.235c-4.495-2.55-9.455-3.718-14.441-4.729a105.3,105.3,0,0,0-14.755-2.136,2.732,2.732,0,0,1-2.828-1.964,20.945,20.945,0,0,0-5.735-7.7,9.966,9.966,0,0,1,3.478-2.041c8.582-3.872,13.408-10.735,15.551-19.652a6.248,6.248,0,0,1,2.454-3.914,16.132,16.132,0,0,0,5.862-9.949,4.922,4.922,0,0,0-.1-3.42c-1.3-2.29-.446-4.342.131-6.59,1.714-6.683,1.064-13.326-.893-19.873a34.02,34.02,0,0,1-1.6-7.517,17.185,17.185,0,0,1,5.574,2.212,64.5,64.5,0,0,1,22.913,20.8c11.68,16.964,17.985,35.646,17.865,56.331a65.812,65.812,0,0,1-8.1,31.634c-5.091,9.311-11.092,17.907-19.474,24.613C-341.767-308.668-342.149-308.92-341.99-309.717Z" transform="translate(631.79 475.668)" fill="#fff"/>
            <path id="Path_1511" data-name="Path 1511" d="M-481.905-356.334c-1.171,2.26-2.773,3.975-3.669,6.105-.5,1.176-1.766.974-2.743,1.095a89.46,89.46,0,0,0-10.841,2.258c-7.891,1.993-13.927,6.272-18.014,13.5a104.213,104.213,0,0,0-9.429,23.039q-1.466,5.17-3.034,10.309c-.893,2.935-1.375,3.09-3.605,1.032a88.241,88.241,0,0,1-23.267-34.056c-3.68-9.772-5.551-19.792-4.3-30.273a47.967,47.967,0,0,1,3.422-13.392c5.474-12.7,13.922-22.834,25.9-29.888,2.567-1.512,5.2-2.915,8.059-4.513a47.1,47.1,0,0,0,6,18.668,2.323,2.323,0,0,1,.057,2.24,12.836,12.836,0,0,0,.715,9.45,8.29,8.29,0,0,0,5.122,4.9c2.857.9,4.582,2.944,6.249,5.193a42.286,42.286,0,0,0,6.272,6.923c3.883,3.356,8.718,4.594,13.335,6.329C-484.533-356.982-483.317-356.732-481.905-356.334Z" transform="translate(695.806 463.609)" fill="#fff"/>
            <path id="Path_1512" data-name="Path 1512" d="M-368.222-247.867a154.284,154.284,0,0,0,2.295-22.025,76.279,76.279,0,0,0-.278-11.789,3.7,3.7,0,0,0-.619-2.293.987.987,0,0,0-1.225-.346,1.4,1.4,0,0,0-.622.721,2.791,2.791,0,0,0,.027,1.025,119.67,119.67,0,0,1-1.47,30.435c-.589,3.5-2.229,6.617-6.272,7.91a118.87,118.87,0,0,1-26.234,5.5c-.08-1.918,1.1-3.149,1.744-4.516a9.35,9.35,0,0,0,.856-5.362c-1.348-10.789-2.7-21.577-4.455-32.311-.282-1.724-.435-3.3,1.018-4.819,1.586-1.655.945-4.215,1.868-6.222,1.125-.461,1.692.48,2.34,1.038,2.648,2.28,4.666,5.121,6.853,7.815,1.627,2,2.092,2.021,3.417-.3,4.6-8.052,7.129-16.534,4.822-25.893a2.451,2.451,0,0,1-.126-1.746,2.668,2.668,0,0,1,.9-.193c7.679,1.022,15.354,2.1,22.741,4.548,9.813,3.247,11.495,6.853,11.125,16.9-.234,6.338-1.343,12.643-2.068,18.963-.475,4.135-.84,8.284-1.642,12.379a3.944,3.944,0,0,1-1.64,2.894A125.1,125.1,0,0,1-368.222-247.867Z" transform="translate(639.03 427.385)" fill="#fff"/>
            <path id="Path_1513" data-name="Path 1513" d="M-468.527-310.11c.255,1.7-.463,2.967-.726,4.3-1.765,8.979.539,16.967,5.785,24.237,1.705,2.363,2.886,2.348,4.494-.012a56.313,56.313,0,0,1,4.441-6.2c.426-.473.669-1.28,1.772-1.09.287,1.766-.344,3.908,1.612,5.249.5.346-.007,1.055-.224,1.561-4.429,10.339-7.236,21.213-10.63,31.9a9.58,9.58,0,0,0,.9,8.249,7.129,7.129,0,0,1,1.458,3.239,33.012,33.012,0,0,1-9.215-1.077c-7.938-1.685-15.444-4.679-22.832-7.978-2.745-1.227-2.671-1.213-2.156-4.086a90.735,90.735,0,0,1,9.484-27.766c1.432-2.621,2.649-5.435,5.327-7.15.53-.339.8-.842.335-1.437a1.294,1.294,0,0,0-1.558-.4,6.73,6.73,0,0,0-3,2.8c-3.367,4.75-5.725,10.029-8.011,15.351-2.714,6.317-3.806,13.073-5.46,20.227-4.516-2.348-9.042-4.194-12.606-7.744-.646-.644-.311-1.277-.108-1.914,2.846-8.924,4.932-18.09,8.494-26.785A51.374,51.374,0,0,1-492-301.41c2.632-2.977,6.129-4.583,9.766-5.723C-477.847-308.506-473.413-309.856-468.527-310.11Z" transform="translate(677.134 426.974)" fill="#fff"/>
            <path id="Path_1514" data-name="Path 1514" d="M-422.665-222.869c-4.741,1.71-6.669-2.03-8.5-6.021a5.809,5.809,0,0,1-.548-4.333c3.016-9.954,5.673-20.02,9.383-29.753.535-1.4,1.15-2.775,1.751-4.151a2.46,2.46,0,0,1,2.925-1.311c1,.154.841,1.236.944,2.016,1.361,10.324,2.545,20.674,4.155,30.958.69,4.407-.876,7.893-2.888,11.446a2.257,2.257,0,0,1-2.3,1.158C-419.127-222.9-420.517-222.869-422.665-222.869Z" transform="translate(648.921 411.88)" fill="#fff"/>
            <path id="Path_1515" data-name="Path 1515" d="M-437.044-288.012a26.13,26.13,0,0,1-5.782-12.228c-1.5-7.761.34-14.867,4.426-21.488a7.83,7.83,0,0,1,1.278-1.635c1.836-1.707,3.45-1.324,3.792,1.143.94,6.8,3.951,12.727,7.254,18.569.558.987,1.334,1.877-.039,2.942A47.3,47.3,0,0,0-437.044-288.012Z" transform="translate(653.062 432.161)" fill="#fff"/>
            <path id="Path_1516" data-name="Path 1516" d="M-394.348-328.232c5.836,4.2,7.744,9.94,8.59,16.094,1.01,7.349-1.238,14.059-4.8,21.048-3.817-4.977-7.728-9.31-13.509-12.041a46.388,46.388,0,0,0,6.108-12.035A73.95,73.95,0,0,0-394.348-328.232Z" transform="translate(638.816 433.547)" fill="#fff"/>
            <path id="Path_1517" data-name="Path 1517" d="M-405.247-326.722c-1.6,8.3-3.977,15.816-8.549,22.535-.765,1.125-1.35,1.041-2.175.363a3.606,3.606,0,0,1-.829-1.09c-2.443-4.589-5.205-9.019-6.986-13.94a19.434,19.434,0,0,1-.74-2.305c-.7-3.119-.175-3.868,2.946-3.8C-416.232-324.84-411-325.739-405.247-326.722Z" transform="translate(646.336 433)" fill="#fefefe"/>
            <path id="Path_1518" data-name="Path 1518" d="M-412.516-285.02c.687.056,1.373.125,2.061.165,1.543.089,1.945.913,1.593,2.328-.277,1.113-.5,2.244-.674,3.378a2.374,2.374,0,0,1-2.79,2.329c-1.443-.1-3.431.825-4.195-.5a7.388,7.388,0,0,1-.289-5.685C-416.218-284.868-414.366-285.215-412.516-285.02Z" transform="translate(643.591 417.892)" fill="#fbfbfb"/>
            <path id="Path_1519" data-name="Path 1519" d="M-318.055-233.086c.243.392.446.823.955.948-.259.627-.72,1.264-1.347.7C-318.975-231.9-318.616-232.627-318.055-233.086Z" transform="translate(607.854 399.037)" fill="#989898"/>
            <path id="Path_1520" data-name="Path 1520" d="M-340.3-40.277c-2.51-4.337-4.881-8.419-7.236-12.511a2.632,2.632,0,0,1,.309-3.2,47.985,47.985,0,0,1,13.636-12.681c3.367-1.973,7.236-2.277,11.061-2.5,4.636-.271,9.235.4,13.852.565,1.83.066,2.207,1.331,2.9,2.505,3.778,6.393,8.916,11.313,16.137,13.4a18.07,18.07,0,0,0,18.571-4.548c1.234-1.2,2.186-1.67,3.849-.988,7.7,3.164,15.38,6.384,22.52,10.705,9.238,5.592,10.756,9.508,7.994,19.9-1.9,7.142-1.891,7.165-8.848,9.888-2.471.967-5.023,1.732-7.491,2.707a4.034,4.034,0,0,1-4.041-.351c.54-2.271,1.1-4.61,1.648-6.952a13.9,13.9,0,0,0,.4-2.038c.08-1,.47-2.4-.951-2.565-1.586-.187-1.09,1.313-1.284,2.244A138.389,138.389,0,0,1-265.661-.3a16.493,16.493,0,0,1-3.5,5.467A6.847,6.847,0,0,1-273.6,7.449,104.652,104.652,0,0,1-313.036,3.4,95.707,95.707,0,0,1-325.7-1.319c-8.682-3.974-16.216-9.7-23.591-15.67-1.041-.843-.958-1.567-.446-2.675a92.629,92.629,0,0,1,18.207-26.791c1.619-1.63,3.181-3.395,5.531-4.049.646-.18.995-.59.806-1.26-.183-.648-.738-.832-1.354-.852a4.609,4.609,0,0,0-2.8,1.227,40.765,40.765,0,0,0-6.556,6.182C-337.279-43.672-338.647-42.128-340.3-40.277Z" transform="translate(619.242 340.332)" fill="#fff"/>
            <path id="Path_1521" data-name="Path 1521" d="M-230.282-150.751a32.822,32.822,0,0,1,4.4.034,4.271,4.271,0,0,1,3.609,5.275,7.815,7.815,0,0,1-2.773,4.665,24.973,24.973,0,0,1-8.478,4.605,12.476,12.476,0,0,0-3.206,1.24c-.068,1.535,1.336.9,2.072,1.462-2.988,6.056-7.409,10.561-14.029,12.471-16.617,4.794-32.049,1.968-46.155-7.832-6.31-4.385-9.622-11.073-12.393-18.033a1.237,1.237,0,0,1,.248-1.5,12.589,12.589,0,0,0,1.522-1.867,1.234,1.234,0,0,0-.324-1.823,1.018,1.018,0,0,0-1.467.416c-.508.716-.939,2.063-1.947,1.493-1.347-.762-3.139-.85-3.968-2.553-1.292-2.656-1.315-5.286-.252-8.826.756,1.632,1.647,2.041,2.774,2.053,1.339.015,2.355-.417,2.447-1.842.166-2.579,1.641-4.5,2.943-6.553,2.48-3.91,4.483-8.087,6.6-12.2a5.523,5.523,0,0,1,4.312-3.413c3.673-.619,6.393-3.085,8.393-6.235.488-.767.844-1.619,1.227-2.367a147.483,147.483,0,0,0,49.5,8.035c2.29,0,3.335.711,4.409,2.756a11.386,11.386,0,0,1,1.347,7.834A74.943,74.943,0,0,0-230.282-150.751Z" transform="translate(606.214 384.164)" fill="#fff"/>
            <path id="Path_1522" data-name="Path 1522" d="M-185.04-174.013a21.707,21.707,0,0,1,5,3.812c9.615,8.953,15.335,20.157,18.815,32.653,5.291,19,5.471,37.923-.919,56.727a62.488,62.488,0,0,1-11.032,19.936A84.806,84.806,0,0,1-198.578-39.64a17.078,17.078,0,0,1-4.343,1.919c-.539-.98.117-1.64.412-2.318,2.632-6.04,4.914-12.228,7.25-18.374a51.513,51.513,0,0,0,3.681-15.809,12.176,12.176,0,0,0-3.153-8.919,30,30,0,0,0-7.31-5.81c-9.381-5.631-19.518-9.483-29.927-12.7-4.631-1.43-4.814-2.032-2.472-6.313a3.283,3.283,0,0,1,3.037-1.864,59.466,59.466,0,0,0,8.213-1.3c8.857-1.629,14.949-6.913,19.2-14.571a6.773,6.773,0,0,1,3.6-3.392,15.48,15.48,0,0,0,7.994-7.855c.455-.918,1.074-2.059.885-2.94-.684-3.178,1.069-5.442,2.4-7.962,2.987-5.669,3.9-11.84,3.77-18.158A78,78,0,0,1-185.04-174.013Z" transform="translate(577.826 377.611)" fill="#fff"/>
            <path id="Path_1523" data-name="Path 1523" d="M-345.39-181.982a44.623,44.623,0,0,0,.672,18.479,3.729,3.729,0,0,1-.482,3.462,11.616,11.616,0,0,0,2.42,15.282,13.065,13.065,0,0,1,4.149,5.8,35.019,35.019,0,0,0,4.559,8.928c4.56,5.943,10.735,9.684,17.4,12.745.734.337,1.544.523,2.248.908a1.6,1.6,0,0,1-.023,2.953,12.475,12.475,0,0,1-4.681,1.059c-3.241-.158-6.442-.628-9.664-.93a69.331,69.331,0,0,0-16.6.1,23.029,23.029,0,0,0-12.219,6.091,81.234,81.234,0,0,0-14.739,17.9c-2.684,4.326-5.308,8.689-8,13.007-1.419,2.273-1.963,2.314-3.359.137a88.681,88.681,0,0,1-13.741-37.822c-1.137-9.549-.746-18.968,2.247-28.151,5.4-16.577,16.963-27.512,32.346-34.79C-357.43-179.4-351.606-180.769-345.39-181.982Z" transform="translate(636.63 380.501)" fill="#fff"/>
            <path id="Path_1524" data-name="Path 1524" d="M-359.848-8.829C-363.082-12.2-367-14.783-369.379-18.9a1.957,1.957,0,0,1-.127-2.436c3.764-5.97,7.423-12,11.136-18.006.353-.571.667-1.231,1.5-1.437q3.543,6.123,7.11,12.284c.408.7.813,1.329.155,2.176-4,5.156-6.557,11.152-9.67,16.825A5.254,5.254,0,0,1-359.848-8.829Z" transform="translate(626.415 329.286)" fill="#fff"/>
            <path id="Path_1525" data-name="Path 1525" d="M-217.937,35.161c2.5-3.644,3.572-7.926,5.325-11.9.971-2.2.873-5.168,2.625-6.614,1.621-1.338,4.329-1.3,6.506-2.03,3.562-1.187,7.082-2.5,10.938-3.875a52.6,52.6,0,0,1-2.817,8.011c-1.219,3.234-2.686,6.375-3.872,9.621a5.251,5.251,0,0,1-3.192,3.392,98.163,98.163,0,0,1-13.971,3.875,1.422,1.422,0,0,1-1.536-.5l.512.148Z" transform="translate(571.305 310.6)" fill="#fefefe"/>
            <path id="Path_1526" data-name="Path 1526" d="M-265.019-67.585c1.9-3.086,1.1-6.541,2.3-9.721a81.862,81.862,0,0,0,15.734,2.673c-1.11,3.37-2.15,6.5-3.17,9.64-.385,1.187-1.358,1.083-2.264,1.052A24.771,24.771,0,0,1-265.019-67.585Z" transform="translate(588.382 342.535)" fill="#fefefe"/>
            <path id="Path_1527" data-name="Path 1527" d="M-273.189-63.866c5.336,5.551,12.033,7.344,19.476,7.038a10.109,10.109,0,0,0,5.418-2.06,2.272,2.272,0,0,1,3.463.4,16.575,16.575,0,0,1-15.231,4.474c-5.816-1.113-10.1-4.775-13.791-9.208C-273.994-63.814-273.851-64.11-273.189-63.866Z" transform="translate(591.604 337.691)" fill="#f4f4f4"/>
            <path id="Path_1528" data-name="Path 1528" d="M-274.464-65.856l-.665.641a4.983,4.983,0,0,1-2.05-2.613c-.287-.595-.5-1.384.513-1.573a1.076,1.076,0,0,1,1.445.968A22.682,22.682,0,0,0-274.464-65.856Z" transform="translate(592.879 339.681)" fill="#d0d0d0"/>
            <path id="Path_1529" data-name="Path 1529" d="M-268.786-65.69c-.718-.807-1.114-1.2-1.445-1.64-.344-.458-.618-1-.151-1.515a1.352,1.352,0,0,1,1.573-.171,1.022,1.022,0,0,1,.7,1.327C-268.259-67.161-268.46-66.647-268.786-65.69Z" transform="translate(590.417 339.589)" fill="#c8c8c8"/>
            <path id="Path_1530" data-name="Path 1530" d="M-280.241-184.851c-.6,1.447-1.577,1.594-2.7,1.9C-282.493-184.337-281.5-184.449-280.241-184.851Z" transform="translate(594.883 381.542)" fill="#0c0c0c"/>
            <path id="Path_1531" data-name="Path 1531" d="M-237.4-59.132l.088.261-.235-.028Z" transform="translate(578.418 335.943)" fill="#616161"/>
            <path id="Path_1532" data-name="Path 1532" d="M-217.929,49.02l.434.34c-.216.217-.277.171-.224-.146.007-.04-.14-.106-.216-.164A.158.158,0,0,1-217.929,49.02Z" transform="translate(571.304 296.715)" fill="#fefefe"/>
            <path id="Path_1533" data-name="Path 1533" d="M-629.4-139.23c-4.32-.046-7.464-2.274-10.274-5.146a1.019,1.019,0,0,1-.05-1.53,1.039,1.039,0,0,1,1.536-.045c.819.633,1.565,1.361,2.384,1.992,5.449,4.193,10.561,2.908,13.417-3.355.572-1.254,1.111-2.526,1.759-3.738a1.062,1.062,0,0,1,1.472-.477,1.136,1.136,0,0,1,.672,1.1c.015,4.07-5.244,10.344-9.274,11.041C-628.32-139.289-628.9-139.275-629.4-139.23Z" transform="translate(724.406 369.503)" fill="#090909"/>
            <path id="Path_1534" data-name="Path 1534" d="M-627.576-161.829a6.57,6.57,0,0,1,.558-1.92c1.013-1.7.136-2.521-1.254-3.223-2.147-1.083-3.8-2.606-4.232-5.1-.133-.769-.3-1.726.792-1.967.844-.185,1.2.43,1.343,1.187.374,2.021,1.849,3.031,3.486,4,3.086,1.827,3.195,2.188,2.208,5.5-.449,1.5-.656,2.916.626,4.156.421.407.706.963.24,1.514-.554.656-1.241.459-1.866.106C-626.818-158.222-627.573-159.794-627.576-161.829Z" transform="translate(721.707 377.632)" fill="#0e0e0e"/>
            <path id="Path_1535" data-name="Path 1535" d="M-664.132-173.138c-.048-3.631,1.031-3.633,3.7-2.513,2.008.843,3.046,4.621,2.058,6.709-.87,1.841-2.45,2.2-3.87.759A6.969,6.969,0,0,1-664.132-173.138Z" transform="translate(733.144 378.443)" fill="#0a0a0a"/>
            <path id="Path_1536" data-name="Path 1536" d="M-608.914-182.692c.07,2.048-.876,3.391-2.481,3.523-2.219.182-3.806-1.723-3.912-4.7-.083-2.353.383-3.037,2.124-3.113C-610.675-187.085-609.007-185.41-608.914-182.692Z" transform="translate(715.437 382.315)" fill="#080808"/>
            <path id="Path_1537" data-name="Path 1537" d="M-676.257-195.441c-.264-.106-.342-.3-.15-.5a2.023,2.023,0,0,1,.524-.3c.055.184.2.417.141.54C-675.815-195.565-676.077-195.524-676.257-195.441Z" transform="translate(737.634 385.674)" fill="#e2e2e2"/>
            <path id="Path_1538" data-name="Path 1538" d="M-424.918-350.121a8.154,8.154,0,0,1-4.017-1.334c-3.256-2.051-4.664-5.3-5.62-8.82a1.136,1.136,0,0,1,.537-1.47c.825-.376,1.306.158,1.588.843.394.957.677,1.96,1.083,2.912a9.422,9.422,0,0,0,3.086,4.09,5.609,5.609,0,0,0,8.406-1.5,12.734,12.734,0,0,0,1.6-4.538,16.937,16.937,0,0,1,.987-3.3,1.278,1.278,0,0,1,1.78-.574,1.148,1.148,0,0,1,.683,1.682c-1.112,1.828-1.09,3.984-1.856,5.907C-418.168-352.447-421.13-350.166-424.918-350.121Z" transform="translate(649.899 446.504)" fill="#0b0b0b"/>
            <path id="Path_1539" data-name="Path 1539" d="M-421.735-398.242a9.015,9.015,0,0,1-1.764,4.663c-.656.946-1.359,1.862-1.969,2.837-1.876,3-1.832,3.106,1.337,4.358,1.791.708,3.037,4.751,1.994,6.581a1.26,1.26,0,0,1-.8.542.969.969,0,0,1-1.119-.585,3.6,3.6,0,0,1-.314-1.332c.069-1.987-.631-3.021-2.786-3.476-2.064-.436-2.492-1.862-1.926-4.065a13.832,13.832,0,0,1,2.625-4.822c1.706-2.259,3.216-4.54,2.064-7.587a1.134,1.134,0,0,1,.574-1.468c.873-.433,1.254.271,1.586.852A5.9,5.9,0,0,1-421.735-398.242Z" transform="translate(647.971 460.569)" fill="#0c0c0c"/>
            <path id="Path_1540" data-name="Path 1540" d="M-400.269-402.867a10.835,10.835,0,0,1,.967-5.015,2.786,2.786,0,0,1,2.615-1.927,3.019,3.019,0,0,1,2.7,1.857c1.085,2.048.4,6.507-1.238,8.173-2.018,2.048-4.083,1.491-4.825-1.341A9.1,9.1,0,0,1-400.269-402.867Z" transform="translate(637.438 463.136)" fill="#070707"/>
            <path id="Path_1541" data-name="Path 1541" d="M-443.581-400.156c-.1.518-.226,1.436-.478,2.317-.368,1.286-1.054,2.439-2.535,2.468a3.311,3.311,0,0,1-2.963-2.088,6.636,6.636,0,0,1,.3-6.33c1.192-2.148,3.812-1.988,4.966.211A8.091,8.091,0,0,1-443.581-400.156Z" transform="translate(655.557 461.507)" fill="#090909"/>
            <path id="Path_1542" data-name="Path 1542" d="M-264.121-113.093c.027-.575.036-1.153.087-1.726a1.035,1.035,0,0,1,.885-.944,1.052,1.052,0,0,1,1.159,1.007c.217,1.368.394,2.742.556,4.117a7.773,7.773,0,0,0,1.376,3.515c2.435,3.567,6.442,3.884,9.418.749a19.431,19.431,0,0,0,2.54-4.116,14.6,14.6,0,0,1,1.493-2.32,1.232,1.232,0,0,1,1.855-.071c.535.484.916,1.189.241,1.8-1.508,1.369-2.027,3.34-3.143,4.942-2.164,3.107-5.04,4.733-8.891,4.132-3.64-.568-5.517-3.164-6.7-6.322A13.15,13.15,0,0,1-264.121-113.093Z" transform="translate(588.056 356.487)" fill="#080808"/>
            <path id="Path_1543" data-name="Path 1543" d="M-250.751-132.357c.869-1.838.236-3.074-1.833-4.13-1.76-.9-1.865-2.329-.879-4.16a13.037,13.037,0,0,1,3.738-4.042c2.344-1.8,4.5-3.67,4.158-7.064a1.126,1.126,0,0,1,1-1.223c.7-.1.983.493,1.175,1.037a4.569,4.569,0,0,1-.078,3.049,10.937,10.937,0,0,1-3.506,5.046,34.8,34.8,0,0,0-3.567,3.269c-1.3,1.44-1.185,1.684.555,2.77a5.329,5.329,0,0,1,1.271,7.2,1.118,1.118,0,0,1-1.212.462C-251.038-130.44-250.819-131.315-250.751-132.357Z" transform="translate(584.417 369.985)" fill="#0b0b0b"/>
            <path id="Path_1544" data-name="Path 1544" d="M-220.764-146.173a10.645,10.645,0,0,1,2.267-5.695c.831-1.048,1.856-1.843,3.275-1.352a3.1,3.1,0,0,1,2.13,3.245,9.33,9.33,0,0,1-2.676,6.224,3.154,3.154,0,0,1-3.758.937C-220.923-143.5-220.762-144.888-220.764-146.173Z" transform="translate(572.332 370.123)" fill="#050505"/>
            <path id="Path_1545" data-name="Path 1545" d="M-262.5-158.028a7.66,7.66,0,0,1-2.148,5.04c-1.366,1.305-2.624,1.159-3.791-.337-1.774-2.275-.788-6.825,1.781-8.219C-264.49-162.718-262.5-161.176-262.5-158.028Z" transform="translate(589.948 373.231)" fill="#070707"/>
          </g>
          <g id="Group_1172" data-name="Group 1172" transform="translate(390.7 243.672)">
            <g id="Group_1040" data-name="Group 1040" transform="translate(6.905 2.661)">
              <g id="Group_1039" data-name="Group 1039">
                <g id="Group_1038" data-name="Group 1038">
                  <g id="Group_1037" data-name="Group 1037">
                    <path id="Path_1550" data-name="Path 1550" d="M-796.751-119.856a6.832,6.832,0,0,0,4.635,2.336,183.988,183.988,0,0,0,40.449-.251,2.276,2.276,0,0,0,1.387-.49,2.3,2.3,0,0,0,.442-1.693l-.195-23.184a6.151,6.151,0,0,0-.634-3.264c-1.09-1.737-3.5-1.929-5.553-1.932l-42.471-.077C-798.694-141.607-801.968-125.863-796.751-119.856Z" transform="translate(799.708 148.412)" fill="#fff" stroke="#000" stroke-width="2.5"/>
                  </g>
                </g>
              </g>
            </g>
            <g id="Group_1060" data-name="Group 1060" transform="translate(27.349 20.815)">
              <path id="Path_1569" data-name="Path 1569" d="M-751.385-118.3a.1.1,0,0,0,.1.1.1.1,0,0,0,.1-.1.1.1,0,0,0-.1-.1A.1.1,0,0,0-751.385-118.3Z" transform="translate(751.385 118.396)" fill="#fff"/>
            </g>
            <g id="Group_1061" data-name="Group 1061" transform="translate(28.073 20.864)">
              <path id="Path_1570" data-name="Path 1570" d="M-752.582-118.215a.1.1,0,0,0,.1.1.1.1,0,0,0,.1-.1.1.1,0,0,0-.1-.1A.1.1,0,0,0-752.582-118.215Z" transform="translate(752.582 118.315)" fill="#fff"/>
            </g>
            <g id="Group_1062" data-name="Group 1062" transform="translate(28.147 21.388)">
              <path id="Path_1571" data-name="Path 1571" d="M-752.662-117.36a.089.089,0,0,0,.086.088.089.089,0,0,0,.088-.088.088.088,0,0,0-.088-.088A.088.088,0,0,0-752.662-117.36Z" transform="translate(752.662 117.448)" fill="#fff"/>
            </g>
            <g id="Group_1063" data-name="Group 1063" transform="translate(28.284 21.7)">
              <path id="Path_1572" data-name="Path 1572" d="M-752.87-116.851a.082.082,0,0,0,.083.082.081.081,0,0,0,.08-.082.082.082,0,0,0-.08-.082A.083.083,0,0,0-752.87-116.851Z" transform="translate(752.87 116.933)" fill="#fff"/>
            </g>
            <g id="Group_1064" data-name="Group 1064" transform="translate(28.613 21.864)">
              <path id="Path_1573" data-name="Path 1573" d="M-753.414-116.579a.083.083,0,0,0,.083.083.08.08,0,0,0,.08-.083.08.08,0,0,0-.08-.082A.083.083,0,0,0-753.414-116.579Z" transform="translate(753.414 116.661)" fill="#fff"/>
            </g>
            <g id="Group_1065" data-name="Group 1065" transform="translate(29.074 21.985)">
              <path id="Path_1574" data-name="Path 1574" d="M-754.181-116.379a.083.083,0,0,0,.083.082.082.082,0,0,0,.083-.082.083.083,0,0,0-.083-.082A.083.083,0,0,0-754.181-116.379Z" transform="translate(754.181 116.461)" fill="#fff"/>
            </g>
            <g id="Group_1066" data-name="Group 1066" transform="translate(28.722 22.536)">
              <path id="Path_1575" data-name="Path 1575" d="M-753.656-115.451a.1.1,0,0,0,.1.1.1.1,0,0,0,.1-.1.1.1,0,0,0-.1-.1A.1.1,0,0,0-753.656-115.451Z" transform="translate(753.656 115.551)" fill="#fff"/>
            </g>
            <g id="Group_1067" data-name="Group 1067" transform="translate(28.696 23.01)">
              <path id="Path_1576" data-name="Path 1576" d="M-753.613-114.666a.1.1,0,0,0,.1.1.1.1,0,0,0,.1-.1.1.1,0,0,0-.1-.1A.1.1,0,0,0-753.613-114.666Z" transform="translate(753.613 114.766)" fill="#fff"/>
            </g>
            <g id="Group_1068" data-name="Group 1068" transform="translate(30.393 22.012)">
              <path id="Path_1577" data-name="Path 1577" d="M-756.31-116.35a.065.065,0,0,0,.065.067.068.068,0,0,0,.069-.067.068.068,0,0,0-.069-.067A.065.065,0,0,0-756.31-116.35Z" transform="translate(756.31 116.417)" fill="#fff"/>
            </g>
            <g id="Group_1069" data-name="Group 1069" transform="translate(30.883 22.011)">
              <path id="Path_1578" data-name="Path 1578" d="M-757.114-116.351a.065.065,0,0,0,.065.067.065.065,0,0,0,.066-.067.066.066,0,0,0-.066-.067A.066.066,0,0,0-757.114-116.351Z" transform="translate(757.114 116.418)" fill="#fff"/>
            </g>
            <g id="Group_1070" data-name="Group 1070" transform="translate(30.714 22.601)">
              <path id="Path_1579" data-name="Path 1579" d="M-756.84-115.374a.066.066,0,0,0,.065.067.069.069,0,0,0,.069-.067.068.068,0,0,0-.069-.068A.066.066,0,0,0-756.84-115.374Z" transform="translate(756.84 115.442)" fill="#fff"/>
            </g>
            <g id="Group_1071" data-name="Group 1071" transform="translate(32.665 23.409)">
              <path id="Path_1580" data-name="Path 1580" d="M-760.17-114.006a.1.1,0,0,0,.1.1.1.1,0,0,0,.1-.1.1.1,0,0,0-.1-.1A.1.1,0,0,0-760.17-114.006Z" transform="translate(760.17 114.106)" fill="#fff"/>
            </g>
            <g id="Group_1072" data-name="Group 1072" transform="translate(32.762 21.013)">
              <path id="Path_1581" data-name="Path 1581" d="M-760.336-117.968a.1.1,0,0,0,.1.1.1.1,0,0,0,.1-.1.1.1,0,0,0-.1-.1A.1.1,0,0,0-760.336-117.968Z" transform="translate(760.336 118.068)" fill="#fff"/>
            </g>
            <g id="Group_1073" data-name="Group 1073" transform="translate(32.139 20.266)">
              <path id="Path_1582" data-name="Path 1582" d="M-759.3-119.2a.1.1,0,0,0,.1.1.1.1,0,0,0,.1-.1.1.1,0,0,0-.1-.1A.1.1,0,0,0-759.3-119.2Z" transform="translate(759.305 119.304)" fill="#fff"/>
            </g>
            <g id="Group_1074" data-name="Group 1074" transform="translate(32.888 19.567)">
              <path id="Path_1583" data-name="Path 1583" d="M-760.54-120.36a.1.1,0,0,0,.1.1.1.1,0,0,0,.1-.1.1.1,0,0,0-.1-.1A.1.1,0,0,0-760.54-120.36Z" transform="translate(760.54 120.46)" fill="#fff"/>
            </g>
            <g id="Group_1075" data-name="Group 1075" transform="translate(33.612 20.066)">
              <path id="Path_1584" data-name="Path 1584" d="M-761.736-119.535a.1.1,0,0,0,.1.1.1.1,0,0,0,.1-.1.1.1,0,0,0-.1-.1A.1.1,0,0,0-761.736-119.535Z" transform="translate(761.736 119.634)" fill="#fff"/>
            </g>
            <g id="Group_1076" data-name="Group 1076" transform="translate(33.249 20.453)">
              <ellipse id="Ellipse_4" data-name="Ellipse 4" cx="0.063" cy="0.063" rx="0.063" ry="0.063" transform="translate(0)" fill="#fff"/>
            </g>
            <g id="Group_1077" data-name="Group 1077" transform="translate(30.969 17.721)">
              <path id="Path_1585" data-name="Path 1585" d="M-757.365-123.413a.1.1,0,0,0,.1.1.1.1,0,0,0,.1-.1.1.1,0,0,0-.1-.1A.1.1,0,0,0-757.365-123.413Z" transform="translate(757.365 123.512)" fill="#fff"/>
            </g>
            <g id="Group_1078" data-name="Group 1078" transform="translate(30.193 14.825)">
              <path id="Path_1586" data-name="Path 1586" d="M-756.088-128.2a.1.1,0,0,0,.1.1.1.1,0,0,0,.1-.1.1.1,0,0,0-.1-.1A.1.1,0,0,0-756.088-128.2Z" transform="translate(756.088 128.299)" fill="#fff"/>
            </g>
            <g id="Group_1079" data-name="Group 1079" transform="translate(35.283 18.294)">
              <path id="Path_1587" data-name="Path 1587" d="M-764.5-122.464a.1.1,0,0,0,.1.1.1.1,0,0,0,.1-.1.1.1,0,0,0-.1-.1A.1.1,0,0,0-764.5-122.464Z" transform="translate(764.5 122.564)" fill="#fff"/>
            </g>
            <g id="Group_1080" data-name="Group 1080" transform="translate(36.133 21.962)">
              <path id="Path_1588" data-name="Path 1588" d="M-765.905-116.4a.1.1,0,0,0,.1.1.1.1,0,0,0,.1-.1.1.1,0,0,0-.1-.1A.1.1,0,0,0-765.905-116.4Z" transform="translate(765.905 116.5)" fill="#fff"/>
            </g>
            <g id="Group_1081" data-name="Group 1081" transform="translate(37.529 21.438)">
              <path id="Path_1589" data-name="Path 1589" d="M-768.133-117.291a.073.073,0,0,0,.074.076.074.074,0,0,0,.074-.076.073.073,0,0,0-.074-.074A.073.073,0,0,0-768.133-117.291Z" transform="translate(768.133 117.365)" fill="#fff"/>
            </g>
            <g id="Group_1082" data-name="Group 1082" transform="translate(37.478 20.814)">
              <path id="Path_1590" data-name="Path 1590" d="M-768.053-118.323a.075.075,0,0,0,.074.075.076.076,0,0,0,.078-.075.075.075,0,0,0-.078-.074A.075.075,0,0,0-768.053-118.323Z" transform="translate(768.053 118.397)" fill="#fff"/>
            </g>
            <g id="Group_1083" data-name="Group 1083" transform="translate(37.873 20.284)">
              <path id="Path_1591" data-name="Path 1591" d="M-768.682-119.2a.067.067,0,0,0,.068.069.069.069,0,0,0,.069-.069.069.069,0,0,0-.069-.068A.067.067,0,0,0-768.682-119.2Z" transform="translate(768.682 119.273)" fill="#fff"/>
            </g>
            <g id="Group_1084" data-name="Group 1084" transform="translate(38.677 20.34)">
              <path id="Path_1592" data-name="Path 1592" d="M-770.115-119.081a.1.1,0,0,0,.1.1.1.1,0,0,0,.1-.1.1.1,0,0,0-.1-.1A.1.1,0,0,0-770.115-119.081Z" transform="translate(770.115 119.181)" fill="#fff"/>
            </g>
            <g id="Group_1085" data-name="Group 1085" transform="translate(39.455 20.746)">
              <path id="Path_1593" data-name="Path 1593" d="M-771.26-118.454a.057.057,0,0,0,.057.056.057.057,0,0,0,.057-.056.056.056,0,0,0-.057-.056A.057.057,0,0,0-771.26-118.454Z" transform="translate(771.26 118.51)" fill="#fff"/>
            </g>
            <g id="Group_1086" data-name="Group 1086" transform="translate(39.378 16.598)">
              <path id="Path_1594" data-name="Path 1594" d="M-771.27-125.27a.1.1,0,0,0,.1.1.1.1,0,0,0,.1-.1.1.1,0,0,0-.1-.1A.1.1,0,0,0-771.27-125.27Z" transform="translate(771.27 125.369)" fill="#fff"/>
            </g>
            <g id="Group_1171" data-name="Group 1171" transform="translate(0)">
              <path id="Path_2526" data-name="Path 2526" d="M989.22,483.505c-11.265.6-22.532.572-33.8.164-1.448-.052-2.9-.083-4.348-.022-3.678.154-4.123.541-4.439,4.213-.622,7.246.12,14.487.215,21.729.069,5.308.491,10.611.783,15.915.287,5.218.707,5.568,6.146,5.378a9.271,9.271,0,0,1,1.318.2,9,9,0,0,1-2.564,6.258c-.9,1.007-1.873,1.99-1.153,3.356.915,1.737,2.555.933,3.871.644A24.6,24.6,0,0,0,968.22,533.4a7.851,7.851,0,0,1,6.709-2.716c8.532.187,17.07.092,25.607.1.644,0,1.29,0,1.933-.029,7.486-.362,8.105-.961,8.147-8.574.067-12.233.245-24.471-1.017-36.667-2.71-4.667-7.283-2.778-11.2-3.195-1.06,0-2.122.012-3.183.026-1.04,0-2.082.009-3.123.073A4.648,4.648,0,0,0,989.22,483.505Z" transform="translate(-946.386 -482.281)" fill="#020101" stroke="#fff" stroke-width="2"/>
              <path id="Path_2527" data-name="Path 2527" d="M959.126,535.788c3.042-1.647,5.474-3.1,6.995-5.326,2.037-2.98,4.637-3.371,7.906-3.286,9.331.243,18.67.213,28.005.27a28.46,28.46,0,0,0,3.365-.191,1.7,1.7,0,0,0,1.694-1.917c-.015-.482.036-.965.035-1.448-.035-10.463.035-20.928-.159-31.388-.09-4.808.291-4.428-4.638-4.462-7.4-.05-14.8.182-22.2.469-8.37.325-16.724.315-25.089-.192-3.923-.238-4.134-.062-4.025,3.9.3,10.937.8,21.868,1.194,32.8.062,1.715.376,2.6,2.554,2.234,4.91-.814,5.176-.455,4.881,4.5C959.578,532.86,959.367,533.958,959.126,535.788Z" transform="translate(-946.937 -482.931)" fill="#f25c05"/>
              <path id="Path_2528" data-name="Path 2528" d="M961.135,526.021a6.858,6.858,0,0,0,2.079-.774c1.563-1.225,2.934-.725,4.461.046,1.117.563,2.438,1.443,3.646.685,3.042-1.91,6.044-1.373,9.211-.471a5.182,5.182,0,0,0,4.2-.6c2.664-1.728,5.251-1.612,8.232-.551,3.77,1.341,6.73-.4,8.063-4.012.262-.708.2-1.3-.474-1.575a1.539,1.539,0,0,0-1.3.22,6.718,6.718,0,0,0-1.187,1.5c-1.281,1.863-2.827,2.39-4.954,1.306a8.379,8.379,0,0,0-8.7.427,5.769,5.769,0,0,1-5.549.273,7.884,7.884,0,0,1-.914-.3c-3.04-1.84-5.535,1.667-8.2.962-2.605-.688-4.889-2.459-7.663-.478-2.021,1.444-3.582-.406-5.3-1.031-.812-.3-1.763-.379-2.165.383-.416.788.24,1.512.958,1.966A12.414,12.414,0,0,0,961.135,526.021Z" transform="translate(-944.098 -486.397)" fill="#fff"/>
              <path id="Path_2529" data-name="Path 2529" d="M962.332,514.951c2.593-1.332,5.487-.578,8.375.469a1.243,1.243,0,0,0,.945,0c4.026-2.581,7.964-1.091,11.916.2a1.59,1.59,0,0,0,.953.034c4.043-1.459,8.041-1.256,12.219-.334,2.327.514,4.9-2.343,5.1-4.87a1.573,1.573,0,0,0-.581-1.2,1.014,1.014,0,0,0-1.6.436c-1.194,3.551-3.526,3.519-6.479,2.358a6.268,6.268,0,0,0-4.741-.09c-3.256,1.532-6.22.909-9.252-.43-.58-.255-1.417-.7-1.816-.476-4.505,2.494-9.341-.161-13.855.973-2.213.556-3.666-.679-5.428-1.272-.748-.252-1.635-.682-2.158.2-.663,1.115.168,1.719,1.063,2.2A10.864,10.864,0,0,0,962.332,514.951Z" transform="translate(-945.822 -485.303)" fill="#fff"/>
              <path id="Path_2530" data-name="Path 2530" d="M963.46,497.479c2.161.357,3.452-2.155,5.39-1.764,1.877.379,3.835,1.495,5.588.59a5.715,5.715,0,0,1,6.249.414,6.054,6.054,0,0,0,6.01.328c2.773-1.455,5.115-.887,7.742.251,3.279,1.421,5.338.958,6.95-1.072.391-.492.774-1.118.151-1.641-.311-.262-1.092-.467-1.285-.289-2.476,2.269-4.776.749-7.1-.243a6.505,6.505,0,0,0-6.009.078c-2.4,1.359-4.578.9-6.75-.5-1.877-1.209-3.755-.558-5.82-.445-4.4.24-8.805,1.062-13.243.679-1.519-.13-3.5-2.636-4.4-.035-.666,1.927,2.168,1.742,3.4,2.523A14.5,14.5,0,0,0,963.46,497.479Z" transform="translate(-946.857 -483.453)" fill="#fff"/>
              <path id="Path_2531" data-name="Path 2531" d="M971.7,505.417c3.384-2.008,6.641.411,9.729.117,5.052-.48,9.947-1.382,14.982.092.87.255,2.189-.433,2.985-1.321.726-.811,1.947-1.8,1.183-2.809-.973-1.293-1.9-.1-2.684.723-1.338,1.418-2.947,1.04-4.47.479-2.978-1.1-5.907-1.388-8.862.043a2.231,2.231,0,0,1-1.377.339c-4.6-1.405-9.38-.83-14.062-1.3-.78-.077-1.638-.722-2.288-.527-3.384,1.016-6.687,1.763-9.974-.31-.2-.127-.986.264-1.142.588a1.375,1.375,0,0,0,.232,1.292c1.747,1.47,3.828,2.931,6.055,2.387C965.314,504.407,968.464,503.67,971.7,505.417Z" transform="translate(-944.756 -484.387)" fill="#fff"/>
            </g>
          </g>
        </g>
        <g id="Group_1176" data-name="Group 1176" transform="translate(0 220.305)">
          <g id="Group_1040-2" data-name="Group 1040" transform="translate(7.503 2.661)">
            <g id="Group_1039-2" data-name="Group 1039">
              <g id="Group_1038-2" data-name="Group 1038">
                <g id="Group_1037-2" data-name="Group 1037">
                  <path id="Path_1550-2" data-name="Path 1550" d="M-752.8-119.856a6.832,6.832,0,0,1-4.635,2.336,183.987,183.987,0,0,1-40.449-.251,2.276,2.276,0,0,1-1.387-.49,2.3,2.3,0,0,1-.442-1.693l.195-23.184a6.151,6.151,0,0,1,.634-3.264c1.09-1.737,3.5-1.929,5.553-1.932l42.471-.077C-750.852-141.607-747.577-125.863-752.8-119.856Z" transform="translate(799.708 148.412)" fill="#fff" stroke="#000" stroke-width="2.5"/>
                </g>
              </g>
            </g>
          </g>
          <g id="Group_1060-2" data-name="Group 1060" transform="translate(36.729 20.815)">
            <path id="Path_1569-2" data-name="Path 1569" d="M-751.185-118.3a.1.1,0,0,1-.1.1.1.1,0,0,1-.1-.1.1.1,0,0,1,.1-.1A.1.1,0,0,1-751.185-118.3Z" transform="translate(751.385 118.396)" fill="#fff"/>
          </g>
          <g id="Group_1061-2" data-name="Group 1061" transform="translate(36.005 20.864)">
            <path id="Path_1570-2" data-name="Path 1570" d="M-752.382-118.215a.1.1,0,0,1-.1.1.1.1,0,0,1-.1-.1.1.1,0,0,1,.1-.1A.1.1,0,0,1-752.382-118.215Z" transform="translate(752.582 118.315)" fill="#fff"/>
          </g>
          <g id="Group_1062-2" data-name="Group 1062" transform="translate(35.957 21.388)">
            <path id="Path_1571-2" data-name="Path 1571" d="M-752.488-117.36a.089.089,0,0,1-.086.088.089.089,0,0,1-.088-.088.088.088,0,0,1,.088-.088A.088.088,0,0,1-752.488-117.36Z" transform="translate(752.662 117.448)" fill="#fff"/>
          </g>
          <g id="Group_1063-2" data-name="Group 1063" transform="translate(35.831 21.7)">
            <path id="Path_1572-2" data-name="Path 1572" d="M-752.707-116.851a.082.082,0,0,1-.083.082.081.081,0,0,1-.08-.082.082.082,0,0,1,.08-.082A.083.083,0,0,1-752.707-116.851Z" transform="translate(752.87 116.933)" fill="#fff"/>
          </g>
          <g id="Group_1064-2" data-name="Group 1064" transform="translate(35.502 21.864)">
            <path id="Path_1573-2" data-name="Path 1573" d="M-753.251-116.579a.083.083,0,0,1-.083.083.08.08,0,0,1-.08-.083.08.08,0,0,1,.08-.082A.083.083,0,0,1-753.251-116.579Z" transform="translate(753.414 116.661)" fill="#fff"/>
          </g>
          <g id="Group_1065-2" data-name="Group 1065" transform="translate(35.038 21.985)">
            <path id="Path_1574-2" data-name="Path 1574" d="M-754.015-116.379a.083.083,0,0,1-.083.082.082.082,0,0,1-.083-.082.083.083,0,0,1,.083-.082A.083.083,0,0,1-754.015-116.379Z" transform="translate(754.181 116.461)" fill="#fff"/>
          </g>
          <g id="Group_1066-2" data-name="Group 1066" transform="translate(35.356 22.536)">
            <path id="Path_1575-2" data-name="Path 1575" d="M-753.456-115.451a.1.1,0,0,1-.1.1.1.1,0,0,1-.1-.1.1.1,0,0,1,.1-.1A.1.1,0,0,1-753.456-115.451Z" transform="translate(753.656 115.551)" fill="#fff"/>
          </g>
          <g id="Group_1067-2" data-name="Group 1067" transform="translate(35.382 23.01)">
            <path id="Path_1576-2" data-name="Path 1576" d="M-753.413-114.666a.1.1,0,0,1-.1.1.1.1,0,0,1-.1-.1.1.1,0,0,1,.1-.1A.1.1,0,0,1-753.413-114.666Z" transform="translate(753.613 114.766)" fill="#fff"/>
          </g>
          <g id="Group_1068-2" data-name="Group 1068" transform="translate(33.75 22.012)">
            <path id="Path_1577-2" data-name="Path 1577" d="M-756.176-116.35a.065.065,0,0,1-.065.067.068.068,0,0,1-.069-.067.068.068,0,0,1,.069-.067A.065.065,0,0,1-756.176-116.35Z" transform="translate(756.31 116.417)" fill="#fff"/>
          </g>
          <g id="Group_1069-2" data-name="Group 1069" transform="translate(33.264 22.011)">
            <path id="Path_1578-2" data-name="Path 1578" d="M-756.983-116.351a.065.065,0,0,1-.065.067.065.065,0,0,1-.066-.067.066.066,0,0,1,.066-.067A.066.066,0,0,1-756.983-116.351Z" transform="translate(757.114 116.418)" fill="#fff"/>
          </g>
          <g id="Group_1070-2" data-name="Group 1070" transform="translate(33.43 22.601)">
            <path id="Path_1579-2" data-name="Path 1579" d="M-756.706-115.374a.066.066,0,0,1-.065.067.069.069,0,0,1-.069-.067.068.068,0,0,1,.069-.068A.066.066,0,0,1-756.706-115.374Z" transform="translate(756.84 115.442)" fill="#fff"/>
          </g>
          <g id="Group_1071-2" data-name="Group 1071" transform="translate(31.416 23.409)">
            <path id="Path_1580-2" data-name="Path 1580" d="M-759.973-114.006a.1.1,0,0,1-.1.1.1.1,0,0,1-.1-.1.1.1,0,0,1,.1-.1A.1.1,0,0,1-759.973-114.006Z" transform="translate(760.17 114.106)" fill="#fff"/>
          </g>
          <g id="Group_1072-2" data-name="Group 1072" transform="translate(31.316 21.013)">
            <path id="Path_1581-2" data-name="Path 1581" d="M-760.136-117.968a.1.1,0,0,1-.1.1.1.1,0,0,1-.1-.1.1.1,0,0,1,.1-.1A.1.1,0,0,1-760.136-117.968Z" transform="translate(760.336 118.068)" fill="#fff"/>
          </g>
          <g id="Group_1073-2" data-name="Group 1073" transform="translate(31.939 20.266)">
            <path id="Path_1582-2" data-name="Path 1582" d="M-759.1-119.2a.1.1,0,0,1-.1.1.1.1,0,0,1-.1-.1.1.1,0,0,1,.1-.1A.1.1,0,0,1-759.1-119.2Z" transform="translate(759.305 119.304)" fill="#fff"/>
          </g>
          <g id="Group_1074-2" data-name="Group 1074" transform="translate(31.192 19.567)">
            <path id="Path_1583-2" data-name="Path 1583" d="M-760.342-120.36a.1.1,0,0,1-.1.1.1.1,0,0,1-.1-.1.1.1,0,0,1,.1-.1A.1.1,0,0,1-760.342-120.36Z" transform="translate(760.54 120.46)" fill="#fff"/>
          </g>
          <g id="Group_1075-2" data-name="Group 1075" transform="translate(30.469 20.066)">
            <path id="Path_1584-2" data-name="Path 1584" d="M-761.539-119.535a.1.1,0,0,1-.1.1.1.1,0,0,1-.1-.1.1.1,0,0,1,.1-.1A.1.1,0,0,1-761.539-119.535Z" transform="translate(761.736 119.634)" fill="#fff"/>
          </g>
          <g id="Group_1076-2" data-name="Group 1076" transform="translate(30.904 20.453)">
            <ellipse id="Ellipse_4-2" data-name="Ellipse 4" cx="0.063" cy="0.063" rx="0.063" ry="0.063" fill="#fff"/>
          </g>
          <g id="Group_1077-2" data-name="Group 1077" transform="translate(33.112 17.721)">
            <path id="Path_1585-2" data-name="Path 1585" d="M-757.168-123.413a.1.1,0,0,1-.1.1.1.1,0,0,1-.1-.1.1.1,0,0,1,.1-.1A.1.1,0,0,1-757.168-123.413Z" transform="translate(757.365 123.512)" fill="#fff"/>
          </g>
          <g id="Group_1078-2" data-name="Group 1078" transform="translate(33.885 14.825)">
            <path id="Path_1586-2" data-name="Path 1586" d="M-755.887-128.2a.1.1,0,0,1-.1.1.1.1,0,0,1-.1-.1.1.1,0,0,1,.1-.1A.1.1,0,0,1-755.887-128.2Z" transform="translate(756.088 128.299)" fill="#fff"/>
          </g>
          <g id="Group_1079-2" data-name="Group 1079" transform="translate(28.797 18.294)">
            <path id="Path_1587-2" data-name="Path 1587" d="M-764.3-122.464a.1.1,0,0,1-.1.1.1.1,0,0,1-.1-.1.1.1,0,0,1,.1-.1A.1.1,0,0,1-764.3-122.464Z" transform="translate(764.5 122.564)" fill="#fff"/>
          </g>
          <g id="Group_1080-2" data-name="Group 1080" transform="translate(27.947 21.962)">
            <path id="Path_1588-2" data-name="Path 1588" d="M-765.707-116.4a.1.1,0,0,1-.1.1.1.1,0,0,1-.1-.1.1.1,0,0,1,.1-.1A.1.1,0,0,1-765.707-116.4Z" transform="translate(765.905 116.5)" fill="#fff"/>
          </g>
          <g id="Group_1081-2" data-name="Group 1081" transform="translate(26.6 21.438)">
            <path id="Path_1589-2" data-name="Path 1589" d="M-767.984-117.291a.073.073,0,0,1-.074.076.074.074,0,0,1-.074-.076.073.073,0,0,1,.074-.074A.073.073,0,0,1-767.984-117.291Z" transform="translate(768.133 117.365)" fill="#fff"/>
          </g>
          <g id="Group_1082-2" data-name="Group 1082" transform="translate(26.648 20.814)">
            <path id="Path_1590-2" data-name="Path 1590" d="M-767.9-118.323a.075.075,0,0,1-.074.075.076.076,0,0,1-.077-.075.075.075,0,0,1,.077-.074A.075.075,0,0,1-767.9-118.323Z" transform="translate(768.053 118.397)" fill="#fff"/>
          </g>
          <g id="Group_1083-2" data-name="Group 1083" transform="translate(26.268 20.284)">
            <path id="Path_1591-2" data-name="Path 1591" d="M-768.545-119.2a.067.067,0,0,1-.068.069.069.069,0,0,1-.069-.069.069.069,0,0,1,.069-.068A.067.067,0,0,1-768.545-119.2Z" transform="translate(768.682 119.273)" fill="#fff"/>
          </g>
          <g id="Group_1084-2" data-name="Group 1084" transform="translate(25.401 20.34)">
            <path id="Path_1592-2" data-name="Path 1592" d="M-769.915-119.081a.1.1,0,0,1-.1.1.1.1,0,0,1-.1-.1.1.1,0,0,1,.1-.1A.1.1,0,0,1-769.915-119.081Z" transform="translate(770.115 119.181)" fill="#fff"/>
          </g>
          <g id="Group_1085-2" data-name="Group 1085" transform="translate(24.709 20.746)">
            <path id="Path_1593-2" data-name="Path 1593" d="M-771.146-118.454a.057.057,0,0,1-.057.056.057.057,0,0,1-.057-.056.056.056,0,0,1,.057-.056A.057.057,0,0,1-771.146-118.454Z" transform="translate(771.26 118.51)" fill="#fff"/>
          </g>
          <g id="Group_1086-2" data-name="Group 1086" transform="translate(24.703 16.598)">
            <path id="Path_1594-2" data-name="Path 1594" d="M-771.072-125.27a.1.1,0,0,1-.1.1.1.1,0,0,1-.1-.1.1.1,0,0,1,.1-.1A.1.1,0,0,1-771.072-125.27Z" transform="translate(771.27 125.369)" fill="#fff"/>
          </g>
          <g id="Group_1171-2" data-name="Group 1171" transform="translate(0 0)">
            <path id="Path_2526-2" data-name="Path 2526" d="M967.829,483.505c11.265.6,22.532.572,33.8.164,1.448-.052,2.9-.083,4.348-.022,3.678.154,4.123.541,4.439,4.213.622,7.246-.12,14.487-.215,21.729-.069,5.308-.491,10.611-.783,15.915-.287,5.218-.707,5.568-6.146,5.378a9.272,9.272,0,0,0-1.318.2,9,9,0,0,0,2.564,6.258c.9,1.007,1.873,1.99,1.153,3.356-.915,1.737-2.556.933-3.871.644A24.6,24.6,0,0,1,988.83,533.4a7.851,7.851,0,0,0-6.709-2.716c-8.532.187-17.07.092-25.607.1-.644,0-1.29,0-1.933-.029-7.486-.362-8.105-.961-8.147-8.574-.067-12.233-.245-24.471,1.017-36.667,2.71-4.667,7.283-2.778,11.2-3.195,1.06,0,2.122.012,3.183.026,1.04,0,2.082.009,3.123.073A4.648,4.648,0,0,1,967.829,483.505Z" transform="translate(-946.386 -482.281)" fill="#020101" stroke="#fff" stroke-width="2"/>
            <path id="Path_2527-2" data-name="Path 2527" d="M998.995,535.788c-3.041-1.647-5.474-3.1-6.995-5.326-2.037-2.98-4.637-3.371-7.906-3.286-9.331.243-18.67.213-28.005.27a28.461,28.461,0,0,1-3.365-.191,1.7,1.7,0,0,1-1.694-1.917c.015-.482-.036-.965-.035-1.448.035-10.463-.036-20.928.159-31.388.09-4.808-.291-4.428,4.638-4.462,7.4-.05,14.8.182,22.2.469,8.37.325,16.724.315,25.089-.192,3.923-.238,4.134-.062,4.025,3.9-.3,10.937-.8,21.868-1.194,32.8-.062,1.715-.376,2.6-2.554,2.234-4.91-.814-5.176-.455-4.881,4.5C998.544,532.86,998.755,533.958,998.995,535.788Z" transform="translate(-946.907 -482.931)" fill="#04c4d9"/>
            <path id="Path_2528-2" data-name="Path 2528" d="M994.544,526.021a6.858,6.858,0,0,1-2.079-.774c-1.563-1.225-2.934-.725-4.461.046-1.117.563-2.438,1.443-3.646.685-3.042-1.91-6.044-1.373-9.211-.471a5.182,5.182,0,0,1-4.2-.6c-2.664-1.728-5.251-1.612-8.232-.551-3.77,1.341-6.73-.4-8.063-4.012-.262-.708-.2-1.3.474-1.575a1.539,1.539,0,0,1,1.3.22,6.718,6.718,0,0,1,1.187,1.5c1.281,1.863,2.827,2.39,4.954,1.306a8.379,8.379,0,0,1,8.7.427,5.768,5.768,0,0,0,5.549.273,7.88,7.88,0,0,0,.914-.3c3.04-1.84,5.535,1.667,8.2.962,2.605-.688,4.889-2.459,7.663-.478,2.021,1.444,3.582-.406,5.3-1.031.813-.3,1.763-.379,2.165.383.416.788-.24,1.512-.958,1.966A12.414,12.414,0,0,1,994.544,526.021Z" transform="translate(-947.303 -486.397)" fill="#0f0b0b"/>
            <path id="Path_2529-2" data-name="Path 2529" d="M995.206,514.951c-2.593-1.332-5.487-.578-8.375.469a1.243,1.243,0,0,1-.945,0c-4.026-2.581-7.964-1.091-11.916.2a1.59,1.59,0,0,1-.954.034c-4.043-1.459-8.041-1.256-12.218-.334-2.327.514-4.9-2.343-5.1-4.87a1.573,1.573,0,0,1,.581-1.2,1.014,1.014,0,0,1,1.6.436c1.194,3.551,3.526,3.519,6.479,2.358a6.268,6.268,0,0,1,4.741-.09c3.256,1.532,6.22.909,9.252-.43.58-.255,1.417-.7,1.816-.476,4.505,2.494,9.341-.161,13.855.973,2.213.556,3.666-.679,5.428-1.272.748-.252,1.635-.682,2.158.2.663,1.115-.168,1.719-1.064,2.2A10.864,10.864,0,0,1,995.206,514.951Z" transform="translate(-947.438 -485.303)" fill="#0f0c0c"/>
            <path id="Path_2530-2" data-name="Path 2530" d="M995.241,497.479c-2.161.357-3.452-2.155-5.39-1.764-1.877.379-3.835,1.495-5.588.59a5.715,5.715,0,0,0-6.249.414,6.054,6.054,0,0,1-6.01.328c-2.773-1.455-5.115-.887-7.742.251-3.279,1.421-5.338.958-6.95-1.072-.391-.492-.774-1.118-.151-1.641.311-.262,1.092-.467,1.285-.289,2.476,2.269,4.776.749,7.1-.243a6.505,6.505,0,0,1,6.009.078c2.4,1.359,4.578.9,6.75-.5,1.877-1.209,3.755-.558,5.82-.445,4.4.24,8.805,1.062,13.243.679,1.519-.13,3.5-2.636,4.4-.035.666,1.927-2.168,1.742-3.4,2.523A14.5,14.5,0,0,1,995.241,497.479Z" transform="translate(-947.566 -483.453)" fill="#0f0b0b"/>
            <path id="Path_2531-2" data-name="Path 2531" d="M984.768,505.417c-3.384-2.008-6.641.411-9.73.117-5.052-.48-9.947-1.382-14.982.092-.87.255-2.189-.433-2.985-1.321-.726-.811-1.947-1.8-1.183-2.809.973-1.293,1.9-.1,2.684.723,1.338,1.418,2.947,1.04,4.47.479,2.978-1.1,5.907-1.388,8.862.043a2.231,2.231,0,0,0,1.377.339c4.6-1.405,9.38-.83,14.062-1.3.78-.077,1.638-.722,2.288-.527,3.384,1.016,6.687,1.763,9.974-.31.2-.127.986.264,1.142.588a1.375,1.375,0,0,1-.232,1.292c-1.747,1.47-3.828,2.931-6.056,2.387C991.153,504.407,988,503.67,984.768,505.417Z" transform="translate(-947.432 -484.387)" fill="#0e0b0b"/>
          </g>
        </g>
      </g>
      <g id="Group_1175" data-name="Group 1175" transform="translate(0 44.665)">
        <g id="Group_1173" data-name="Group 1173" transform="translate(0 0)">
          <path id="Path_2532" data-name="Path 2532" d="M-23.149-82.338c5.98-12.778,15.366-19.986,26.215-24.836,10.655-4.763,21.462-7.321,32.648-3.523a6.1,6.1,0,0,0,.68-1.145c3.356-11.635,10.553-17.68,19.79-20.505,11.141-3.408,21.691-.833,31.678,5.688,1.818,1.188,3.077,1.343,4.955.11a23.388,23.388,0,0,1,17.4-3.893c5.984,1.072,10.6,4.812,13.814,11.1,1.478,2.891,2.694,5.988,4.136,9.231,5.692-.2,10.68,2.706,15.435,6.476a11.413,11.413,0,0,0,2.3,1.343c.849.4,1.376,1.13.834,2.061a1.913,1.913,0,0,1-1.818.888,28.946,28.946,0,0,1-3.1-2.045c-3.093-1.766-6.189-3.532-9.343-5.116-.93-.467-2.057-.329-3.453-.517.124,1.632.233,2.889.314,4.149.345,5.372-1.816,9.88-5.642,11.8A5.593,5.593,0,0,1,116.33-92.9c-1.629-2.271-1.731-5.155-.323-8.522a12.344,12.344,0,0,1,5.39-6.011c1.236-.73,2.5-1.4,3.717-2.078-4.112-17.528-20.067-24.1-32.2-13.254.755,1.079,1.527,2.129,2.251,3.227,2.5,3.79,4.334,7.976,4.143,13.011a20.3,20.3,0,0,1-1.186,6.1c-1.77,4.786-5.4,7.024-9.156,5.993-4.4-1.21-7.073-5.227-7.117-10.7A27.254,27.254,0,0,1,86-119.872c.575-.941,1.211-1.825,1.982-2.98a20.416,20.416,0,0,0-2.133-1.727c-9.435-5.673-19.22-8.073-29.587-4.658a26.208,26.208,0,0,0-11.864,7.6,26.121,26.121,0,0,0-5.843,11.968c.656.561,1.321,1.177,2.022,1.722a23.694,23.694,0,0,1,7.032,9.1,13.2,13.2,0,0,1,1.148,7.276c-.723,5.518-4.968,7.774-8.687,4.589a12.716,12.716,0,0,1-4.114-7.382A74.166,74.166,0,0,1,35.111-103c-.1-1.423-.018-2.866-.018-4.265-13.5-7.524-47.489,5.109-55.479,25.817,1.219.894,2.5,1.741,3.709,2.738,6.1,5.05,6.959,14.315,1.978,20.96-3.2,4.267-7.017,4-9.734-.75a18.669,18.669,0,0,1-1.928-12.161c.388-2.723,1.072-5.381,1.671-8.294a8.864,8.864,0,0,0-2.041-.8c-11.133-1.416-21.234,2.012-30.29,10.111-6.5,5.814-9.524,14.157-10.718,23.628-3.168,25.137,2.655,47.183,15.332,66.744A82.467,82.467,0,0,0-38.7,36.867c3.493,3.185,7.266,5.723,11.677,6.117a54.6,54.6,0,0,0,6.647-.3,7.423,7.423,0,0,1,1.713.346c-.275.766-.389,1.851-.865,2.223a4.847,4.847,0,0,1-2.435.72c-6.226.751-11.882-1.212-17.011-5.592A83.777,83.777,0,0,1-55.852,20.366a100.328,100.328,0,0,1-15.033-59.74A94.378,94.378,0,0,1-68.751-53.8,33.736,33.736,0,0,1-56.96-73.491c9.7-7.821,20.242-11.186,31.8-9.012A19.6,19.6,0,0,0-23.149-82.338ZM90.327-120.961c-4.122,4.31-5.89,9.691-6.148,15.838A7.527,7.527,0,0,0,89.288-97.5c2.849.807,5.352-.827,6.748-4.45a13.857,13.857,0,0,0,.42-8.513A21.044,21.044,0,0,0,90.327-120.961ZM-21.732-78.606c-1.589,4.171-2.656,7.844-2.3,11.723a20.1,20.1,0,0,0,1.963,6.961c1.4,2.779,3.144,2.773,5.095.613A11.709,11.709,0,0,0-17.381-75.5,38.316,38.316,0,0,0-21.732-78.606Zm59.59-27.7c-.4,3.778-.631,6.934.2,9.944A24.654,24.654,0,0,0,40.61-90.5c.911,1.544,2.334,2.411,3.975,1.59,1.37-.685,2.269-3.256,1.744-5.49C45.067-99.765,42.136-103.346,37.859-106.308Zm88.13-.246c-1.64.92-3.106,1.659-4.508,2.551a8.551,8.551,0,0,0-3.7,5.238c-.7,2.638.326,4.961,2.53,5.189a5.249,5.249,0,0,0,3.331-.928C126.783-96.662,127.607-100.711,125.989-106.554Z" transform="translate(71.073 133.854)"/>
        </g>
        <g id="Group_1174" data-name="Group 1174" transform="matrix(0.951, -0.309, 0.309, 0.951, 302.843, 54.429)">
          <path id="Path_2537" data-name="Path 2537" d="M40.62,19.385c-9.32,2.32-18.4,2.052-26.93-3.4C8.352,12.576,3.147,8.864,0,2.148.814.611,1.691.9,2.346,2.128c2.66,5,6.776,7.885,10.9,10.687,8.423,5.726,17.39,6.532,27,3.905,0-1.2-.028-2.283.006-3.362a18.34,18.34,0,0,1,2.216-8.832A10.88,10.88,0,0,1,46.105.6c3.361-1.872,6.552.848,6.38,5.275a13.33,13.33,0,0,1-5.443,10.315,43.711,43.711,0,0,1-4.017,2.555,24.79,24.79,0,0,0,5.68,11.662c6.642,7.63,14.471,12.432,23.724,13.509a41.85,41.85,0,0,0,22.472-3.7c1.878-.851,2.794-1.9,2.769-4.532a25.472,25.472,0,0,1,2.853-12.053c1.584-3.043,3.815-4.823,6.958-4.524,3.208.3,5.174,3.213,4.292,6.9a15.267,15.267,0,0,1-2.586,5.781,66.178,66.178,0,0,1-6.61,6.6A30.159,30.159,0,0,1,99.7,40.517c.349,2.352.555,4.775,1.081,7.093a50.614,50.614,0,0,0,8.955,19.4,24.523,24.523,0,0,0,11.923,8.878,39.8,39.8,0,0,0,17.906,1.939,33.909,33.909,0,0,1,1.236-3.6,31.635,31.635,0,0,1,2.841-5.285c1.248-1.7,3.066-1.806,4.281-.712a4.547,4.547,0,0,1,.914,5.123A21.323,21.323,0,0,1,146,77.371a2.826,2.826,0,0,1-1.411,1.037c-3.051.68-3.689,3.386-4.19,6.489-1.875,11.609-2.432,23.174.348,34.7,1.2,4.977,2.919,9.667,5.983,13.411a30.257,30.257,0,0,0,4.6,4.255c1.242,1,2.447.906,3.852-.171a12.325,12.325,0,0,1,4.416-1.707,2.183,2.183,0,0,1,1.844.477,3.806,3.806,0,0,1,1.362,2.25,2.982,2.982,0,0,1-1.256,2.29,9.718,9.718,0,0,1-4.6.88c-2.195-.283-3.47.693-4.514,2.823-4.892,9.986-7.19,20.478-4.428,31.952.429,1.781,1.168,3.455,1.78,5.223,1.423-.317,2.585-.675,3.767-.821a7,7,0,0,1,6.669,2.577,4.07,4.07,0,0,1-1.157,6.458,4.492,4.492,0,0,1-4.592-.383c-1.874-1.17-3.6-2.675-5.688-4.261-.686.422-1.7.952-2.633,1.636-6.169,4.508-11.76,9.8-15.788,17.121-1.146,2.083-2.5,3.525-4.73,3.436-.936-.037-1.762-.181-1.7-1.546.06-1.288.555-2.2,1.815-1.5,1.648.911,2.2-.7,2.8-1.832a43.959,43.959,0,0,1,9.15-11.613c3.137-2.935,6.479-5.555,9.928-8.482a42.5,42.5,0,0,1-2.584-21.048,53.51,53.51,0,0,1,6.642-20.223,64.027,64.027,0,0,1-5.454-4.708,31.132,31.132,0,0,1-6.654-12.566A76.352,76.352,0,0,1,137.11,93.9c.422-4.3,1.118-8.557,1.747-13.271-1.165,0-2.319-.026-3.472,0a42.247,42.247,0,0,1-13.528-2.01A26.861,26.861,0,0,1,107.811,68.3a53.2,53.2,0,0,1-9.679-22.982c-.178-1.083-.384-2.16-.617-3.46-.849.356-1.612.669-2.371,1-9.507,4.095-19.209,5.266-29.076,2.32-6.706-2-12.575-6.061-17.732-11.538a30.719,30.719,0,0,1-7-12.295C41.15,20.731,40.9,20.152,40.62,19.385Zm59.157,17.99c3.445-2.344,6.336-4.668,8.427-8.139a13.555,13.555,0,0,0,1.542-3.861,2.751,2.751,0,0,0-2.027-3.623,4.213,4.213,0,0,0-4.679,2.154C100.593,27.727,99.8,32.146,99.777,37.375ZM42.549,15.841A11.564,11.564,0,0,0,49.605,8.98a10.281,10.281,0,0,0,.635-3.815c-.055-2.077-1.56-3.205-3.11-2.252A8.216,8.216,0,0,0,44.3,5.891,16.643,16.643,0,0,0,42.549,15.841Zm116.661,170.2c-1.97-3.293-3.933-3.881-7.333-2.347C154.278,187.221,156.822,188.107,159.21,186.043ZM146.51,70.134c-2.483,1.388-3.484,3.184-3.612,6.236C146.36,74.5,147.122,73.254,146.51,70.134Z"/>
          <path id="Path_2539" data-name="Path 2539" d="M.136,12.677A13.7,13.7,0,0,1,2.141,3.172,8.667,8.667,0,0,1,5.368.327,2.341,2.341,0,0,1,8.92,2.478,8.385,8.385,0,0,1,8.2,6.122C6.66,9.465,3.906,11.422.136,12.677Z" transform="translate(42.126 2.455)" fill="#fff"/>
        </g>
      </g>
    </g>
  </g>
</svg>
